ffmpeg started on 2016-11-26 at 14:04:10
Report written to "Output/NVENCh264/results/ffmpeg/sintelll4500k.log"
Command line:
Tools/ffmpeg/ffmpeg -benchmark -y -i Input/y4m/sintel.y4m -c:v h264_nvenc -preset ll -b:v 4500k -an Output/NVENCh264/encoded/sintelll4500k.mkv
ffmpeg version N-82227-gdb23fde Copyright (c) 2000-2016 the FFmpeg developers
  built with gcc 5.4.0 (Ubuntu 5.4.0-6ubuntu1~16.04.2) 20160609
  configuration: --prefix=/home/jaroslav/ffmpeg_build --pkg-config-flags=--static --extra-cflags=-I/home/jaroslav/ffmpeg_build/include --extra-ldflags=-L/home/jaroslav/ffmpeg_build/lib --bindir=/home/jaroslav/bin --enable-gpl --enable-libass --enable-libfdk-aac --enable-libfreetype --enable-libmp3lame --enable-libopus --enable-libtheora --enable-libvorbis --enable-libvpx --enable-libx264 --enable-libx265 --enable-nvenc --enable-libmfx --enable-libxvid --enable-libgsm --enable-libopencore-amrnb --enable-version3 --enable-nonfree
  libavutil      55. 35.100 / 55. 35.100
  libavcodec     57. 66.101 / 57. 66.101
  libavformat    57. 57.100 / 57. 57.100
  libavdevice    57.  2.100 / 57.  2.100
  libavfilter     6. 66.100 /  6. 66.100
  libswscale      4.  3.100 /  4.  3.100
  libswresample   2.  4.100 /  2.  4.100
  libpostproc    54.  2.100 / 54.  2.100
Input #0, yuv4mpegpipe, from 'Input/y4m/sintel.y4m':
  Duration: 00:00:20.83, start: 0.000000, bitrate: 2057307 kb/s
    Stream #0:0: Video: rawvideo (I420 / 0x30323449), yuv420p(progressive), 4096x1744, SAR 1:1 DAR 256:109, 24 fps, 24 tbr, 24 tbn, 24 tbc
[h264_nvenc @ 0x42211c0] The variable bitrate rate-control requires the 'qmin' and/or 'qmax' option set.
Output #0, matroska, to 'Output/NVENCh264/encoded/sintelll4500k.mkv':
  Metadata:
    encoder         : Lavf57.57.100
    Stream #0:0: Video: h264 (h264_nvenc) (Main) (H264 / 0x34363248), yuv420p, 4096x1744 [SAR 1:1 DAR 256:109], q=-1--1, 4500 kb/s, 24 fps, 1k tbn, 24 tbc
    Metadata:
      encoder         : Lavc57.66.101 h264_nvenc
    Side data:
      cpb: bitrate max/min/avg: 0/0/4500000 buffer size: 9000000 vbv_delay: -1
Stream mapping:
  Stream #0:0 -> #0:0 (rawvideo (native) -> h264 (h264_nvenc))
Press [q] to stop, [?] for help
frame=   16 fps=0.0 q=0.0 size=       0kB time=00:00:00.00 bitrate=N/A speed=   0x    frame=   22 fps= 17 q=0.0 size=       0kB time=00:00:00.00 bitrate=N/A speed=   0x    frame=   43 fps= 24 q=43.0 size=       1kB time=00:00:00.50 bitrate=  11.9kbits/s speed=0.28x    frame=   64 fps= 28 q=43.0 size=       1kB time=00:00:01.37 bitrate=   4.3kbits/s speed=0.598x    frame=   77 fps= 27 q=41.0 size=       1kB time=00:00:01.91 bitrate=   3.1kbits/s speed=0.681x    frame=   93 fps= 28 q=42.0 size=       1kB time=00:00:02.58 bitrate=   2.3kbits/s speed=0.777x    frame=  114 fps= 30 q=40.0 size=       1kB time=00:00:03.45 bitrate=   1.7kbits/s speed=0.902x    frame=  123 fps= 27 q=39.0 size=       1kB time=00:00:03.83 bitrate=   1.6kbits/s speed=0.826x    frame=  124 fps= 15 q=40.0 size=       1kB time=00:00:03.87 bitrate=   1.5kbits/s speed=0.482x    frame=  125 fps= 11 q=40.0 size=       1kB time=00:00:03.91 bitrate=   1.5kbits/s speed=0.337x    frame=  126 fps= 10 q=40.0 size=       1kB time=00:00:03.95 bitrate=   1.5kbits/s speed=0.326x    frame=  146 fps= 12 q=36.0 size=    2528kB time=00:00:04.79 bitrate=4321.6kbits/s speed=0.379x    frame=  167 fps= 13 q=41.0 size=    2528kB time=00:00:05.66 bitrate=3654.5kbits/s speed=0.431x    frame=  188 fps= 14 q=40.0 size=    2528kB time=00:00:06.54 bitrate=3165.7kbits/s speed=0.479x    frame=  209 fps= 15 q=37.0 size=    2528kB time=00:00:07.41 bitrate=2792.3kbits/s speed=0.523x    frame=  217 fps= 15 q=40.0 size=    2528kB time=00:00:07.75 bitrate=2672.4kbits/s speed=0.526x    frame=  238 fps= 16 q=38.0 size=    2528kB time=00:00:08.62 bitrate=2401.3kbits/s speed=0.566x    frame=  245 fps= 16 q=40.0 size=    2528kB time=00:00:08.91 bitrate=2322.7kbits/s speed=0.566x    frame=  266 fps= 16 q=36.0 size=    2528kB time=00:00:09.79 bitrate=2115.1kbits/s speed=0.602x    frame=  287 fps= 17 q=36.0 size=    5305kB time=00:00:10.66 bitrate=4074.0kbits/s speed=0.636x    frame=  294 fps= 17 q=33.0 size=    5305kB time=00:00:10.95 bitrate=3965.8kbits/s speed=0.634x    frame=  303 fps= 17 q=38.0 size=    5976kB time=00:00:11.33 bitrate=4319.2kbits/s speed=0.634x    frame=  324 fps= 18 q=36.0 size=    5976kB time=00:00:12.20 bitrate=4009.6kbits/s speed=0.664x    frame=  345 fps= 18 q=30.0 size=    5976kB time=00:00:13.08 bitrate=3741.5kbits/s speed=0.692x    frame=  366 fps= 19 q=32.0 size=    5976kB time=00:00:13.95 bitrate=3507.0kbits/s speed=0.719x    frame=  387 fps= 19 q=32.0 size=    5976kB time=00:00:14.83 bitrate=3300.1kbits/s speed=0.744x    frame=  408 fps= 20 q=34.0 size=    5976kB time=00:00:15.70 bitrate=3116.3kbits/s speed=0.768x    frame=  429 fps= 20 q=36.0 size=    8739kB time=00:00:16.58 bitrate=4317.0kbits/s speed=0.791x    frame=  450 fps= 21 q=37.0 size=    9479kB time=00:00:17.45 bitrate=4447.6kbits/s speed=0.813x    frame=  471 fps= 21 q=34.0 size=    9479kB time=00:00:18.33 bitrate=4235.3kbits/s speed=0.834x    frame=  476 fps= 21 q=33.0 size=    9479kB time=00:00:18.54 bitrate=4187.6kbits/s speed=0.817x    frame=  493 fps= 21 q=33.0 size=    9479kB time=00:00:19.25 bitrate=4033.6kbits/s speed=0.823x    frame=  497 fps= 21 q=35.0 size=    9479kB time=00:00:19.41 bitrate=3998.9kbits/s speed=0.812x    frame=  500 fps= 21 q=34.0 Lsize=   11373kB time=00:00:20.79 bitrate=4480.7kbits/s speed=0.865x    
video:11368kB audio:0kB subtitle:0kB other streams:0kB global headers:0kB muxing overhead: 0.042264%
bench: utime=0.912s
bench: maxrss=1191668kB
